# ProBuilder 4.5.2
# https://unity3d.com/unity/features/worldbuilding/probuilder
# 2/28/2023 9:30:45 AM

mtllib ./Level_3_obstacle.mtl
o Level 3 obstacle

g Cube (1)
v -0.5 -0.5 0.5
v -0.5 0.5 0.5
v 0.5 0.5 0.5
v 0.5 -0.5 0.5
v -0.5 0.5 -0.5
v 0.5 0.5 -0.5
v -0.5 -0.5 -0.5
v 0.5 -0.5 -0.5
v -0.5 -0.5 2.5
v -0.5 3.5 2.5
v 0.5 3.5 2.5
v 0.5 -0.5 2.5
v -0.5 3.5 0.5
v 0.5 3.5 0.5

vt 0 0
vt 0 1
vt 1 1
vt 1 0

vn 0 0 1
vn 0 1 0
vn 0 0 -1
vn 0 -1 0
vn 1 0 0
vn -1 0 0

usemtl Default-Material
f 4/4/1 3/3/1 2/2/1 1/1/1
f 3/4/2 6/3/2 5/2/2 2/1/2
f 6/4/3 8/3/3 7/2/3 5/1/3
f 8/4/4 4/3/4 1/2/4 7/1/4
f 8/4/5 6/3/5 3/2/5 4/1/5
f 1/4/6 2/3/6 5/2/6 7/1/6
f 12/4/1 11/3/1 10/2/1 9/1/1
f 11/4/2 14/3/2 13/2/2 10/1/2
f 14/4/3 4/3/3 1/2/3 13/1/3
f 4/4/4 12/3/4 9/2/4 1/1/4
f 4/4/5 14/3/5 11/2/5 12/1/5
f 9/4/6 10/3/6 13/2/6 1/1/6

